<svg width="24" height="24" viewBox="0 0 24 24" fill="none" xmlns="http://www.w3.org/2000/svg">
<path d="M15 15V14H14V15H15ZM20.2929 21.7071C20.6834 22.0976 21.3166 22.0976 21.7071 21.7071C22.0976 21.3166 22.0976 20.6834 21.7071 20.2929L20.2929 21.7071ZM15 9H14V10H15V9ZM21.7071 3.70711C22.0976 3.31658 22.0976 2.68342 21.7071 2.29289C21.3166 1.90237 20.6834 1.90237 20.2929 2.29289L21.7071 3.70711ZM9 15H10V14H9V15ZM2.29289 20.2929C1.90237 20.6834 1.90237 21.3166 2.29289 21.7071C2.68342 22.0976 3.31658 22.0976 3.70711 21.7071L2.29289 20.2929ZM9 9V10H10V9H9ZM3.70711 2.29289C3.31658 1.90237 2.68342 1.90237 2.29289 2.29289C1.90237 2.68342 1.90237 3.31658 2.29289 3.70711L3.70711 2.29289ZM15 20H16V15H15H14V20H15ZM15 15V16H20V15V14H15V15ZM15 15L14.2929 15.7071L20.2929 21.7071L21 21L21.7071 20.2929L15.7071 14.2929L15 15ZM15 4H14V9H15H16V4H15ZM15 9V10H20V9V8H15V9ZM15 9L15.7071 9.70711L21.7071 3.70711L21 3L20.2929 2.29289L14.2929 8.29289L15 9ZM9 20H10V15H9H8V20H9ZM9 15V14H4V15V16H9V15ZM9 15L8.29289 14.2929L2.29289 20.2929L3 21L3.70711 21.7071L9.70711 15.7071L9 15ZM9 4H8V9H9H10V4H9ZM9 9V8H4V9V10H9V9ZM9 9L9.70711 8.29289L3.70711 2.29289L3 3L2.29289 3.70711L8.29289 9.70711L9 9Z" fill="#F5F5F5"/>
</svg>
