<svg width="24" height="24" viewBox="0 0 24 24" fill="none" xmlns="http://www.w3.org/2000/svg">
<path d="M4 20H3V21H4V20ZM9.70711 15.7071C10.0976 15.3166 10.0976 14.6834 9.70711 14.2929C9.31658 13.9024 8.68342 13.9024 8.29289 14.2929L9.70711 15.7071ZM4 14H3V20H4H5V14H4ZM4 20V21H10V20V19H4V20ZM4 20L4.70711 20.7071L9.70711 15.7071L9 15L8.29289 14.2929L3.29289 19.2929L4 20Z" fill="#F5F5F5"/>
<path d="M20 4H21V3H20V4ZM14.2929 8.29289C13.9024 8.68342 13.9024 9.31658 14.2929 9.70711C14.6834 10.0976 15.3166 10.0976 15.7071 9.70711L14.2929 8.29289ZM20 10H21V4H20H19V10H20ZM20 4V3H14V4V5H20V4ZM20 4L19.2929 3.29289L14.2929 8.29289L15 9L15.7071 9.70711L20.7071 4.70711L20 4Z" fill="#F5F5F5"/>
</svg>
