<svg xmlns="http://www.w3.org/2000/svg" viewBox="0 0 24 24"><title>24 square question 1</title><g stroke-linecap="butt" stroke-miterlimit="10" fill="currentColor" stroke-linejoin="miter" class="nc-icon-wrapper"><path d="M12 18a0.5 0.5 0 1 0 0-1 0.5 0.5 0 0 0 0 1z" fill="currentColor" stroke="currentColor" stroke-width="2" data-color="color-2"></path><path d="M9 8.69c0.46-1.82 1.9-2.77 3.5-2.68 1.59 0.09 3.06 0.99 3 3.08-0.1 2.98-3.16 2.58-3.5 5.41" stroke="currentColor" stroke-width="2" data-color="color-2" fill="none"></path><path d="M19 2.5h-14a2.5 2.5 0 0 0-2.5 2.5v14a2.5 2.5 0 0 0 2.5 2.5h14a2.5 2.5 0 0 0 2.5-2.5v-14a2.5 2.5 0 0 0-2.5-2.5z" stroke="currentColor" stroke-width="2" fill="none"></path></g></svg>