<svg xmlns="http://www.w3.org/2000/svg" viewBox="0 0 24 24"><title>24 l circles 1</title><g stroke-linecap="butt" stroke-miterlimit="10" fill="currentColor" stroke-linejoin="miter" class="nc-icon-wrapper"><path fill="none" stroke="currentColor" stroke-width="2" d="M12 1a2 2 0 1 0 0 4 2 2 0 1 0 0-4z"></path><path fill="none" stroke="currentColor" stroke-width="2" data-color="color-2" d="M18.36 3.84a1.8 1.8 0 1 0 0 3.6 1.8 1.8 0 1 0 0-3.6z"></path><path fill="none" stroke="currentColor" stroke-width="2" d="M21 10.4a1.6 1.6 0 1 0 0 3.2 1.6 1.6 0 1 0 0-3.2z"></path><path fill="none" stroke="currentColor" stroke-width="2" data-color="color-2" d="M18.36 16.96a1.4 1.4 0 1 0 0 2.8 1.4 1.4 0 1 0 0-2.8z"></path><path fill="none" stroke="currentColor" stroke-width="2" d="M12 19.8a1.2 1.2 0 1 0 0 2.4 1.2 1.2 0 1 0 0-2.4z"></path><path fill="none" stroke="currentColor" stroke-width="2" data-color="color-2" d="M5.64 17.36a1 1 0 1 0 0 2 1 1 0 1 0 0-2z"></path><path fill="none" stroke="currentColor" stroke-width="2" d="M3 11.2a0.8 0.8 0 1 0 0 1.6 0.8 0.8 0 1 0 0-1.6z"></path><path fill="none" stroke="currentColor" stroke-width="2" data-color="color-2" d="M5.64 5.04a0.6 0.6 0 1 0 0 1.2 0.6 0.6 0 1 0 0-1.2z"></path></g></svg>