<svg xmlns="http://www.w3.org/2000/svg" viewBox="0 0 24 24"><title>24 grid square circle plus 1</title><g fill="currentColor" class="nc-icon-wrapper"><path d="M4.99 10.64h3.32c1.28 0 2.33-1.04 2.33-2.33v-3.32c0-1.28-1.04-2.33-2.33-2.33h-3.32c-1.28 0-2.33 1.04-2.33 2.33v3.32c0 1.28 1.04 2.33 2.33 2.33z" stroke-width="0"></path><path d="M18.95 13.3h-3.32c-1.28 0-2.33 1.04-2.33 2.33v3.32c0 1.28 1.04 2.33 2.33 2.33h3.32c1.28 0 2.33-1.04 2.33-2.33v-3.32c0-1.28-1.04-2.33-2.33-2.33z" stroke-width="0"></path><path d="M6.65 12.97c-2.38 0-4.32 1.94-4.32 4.32s1.94 4.32 4.32 4.32 4.32-1.94 4.32-4.32-1.94-4.32-4.32-4.32z" opacity=".4" stroke-width="0" data-color="color-2"></path><path d="M20.62 5.99h-2.33v-2.33a1 1 0 0 0-2 0v2.33h-2.32a1 1 0 0 0 0 1.99h2.32v2.33a1 1 0 0 0 2 0v-2.33h2.33a1 1 0 0 0 0-1.99z" opacity=".4" stroke-width="0" data-color="color-2"></path></g></svg>