<svg xmlns="http://www.w3.org/2000/svg" viewBox="0 0 24 24"><title>24 moon stars</title><g stroke-linecap="square" stroke-miterlimit="10" fill="currentColor" stroke-linejoin="miter" class="nc-icon-wrapper"> <path d="M3 11.9309C3 16.9396 7.0596 21 12.0674 21C15.4803 21 18.4528 19.1141 20 16.3273C19.4852 16.4181 18.9554 16.4655 18.4145 16.4655C13.4068 16.4655 9.34716 12.4051 9.34716 7.39637C9.34716 5.80122 9.75892 4.30225 10.4819 3C6.23006 3.74996 3 7.46316 3 11.9309Z" stroke="currentColor" stroke-width="2" fill="none"></path> <path d="M16.6 2.4L16 1L15.4 2.4L14 3L15.4 3.6L16 5L16.6 3.6L18 3L16.6 2.4Z" fill="currentColor" data-color="color-2" data-stroke="none" stroke="none"></path> <path d="M16.25 8.75L15.5 7L14.75 8.75L13 9.5L14.75 10.25L15.5 12L16.25 10.25L18 9.5L16.25 8.75Z" fill="currentColor" data-color="color-2" data-stroke="none" stroke="none"></path> <path d="M21.6 6.4L21 5L20.4 6.4L19 7L20.4 7.6L21 9L21.6 7.6L23 7L21.6 6.4Z" fill="currentColor" data-color="color-2" data-stroke="none" stroke="none"></path> </g></svg>