<svg xmlns="http://www.w3.org/2000/svg" viewBox="0 0 24 24"><title>24 person reading</title><g stroke-linecap="square" stroke-miterlimit="10" fill="currentColor" stroke-linejoin="miter" class="nc-icon-wrapper"><polygon points="17 21 12 22 7 21 7 14 12 15 17 14 17 21" fill="none" stroke="currentColor" stroke-width="2" data-color="color-2"></polygon><path d="m12,7h0c-1.657,0-3-1.343-3-3h0c0-1.657,1.343-3,3-3h0c1.657,0,3,1.343,3,3h0c0,1.657-1.343,3-3,3Z" fill="none" stroke="currentColor" stroke-width="2" data-color="color-2"></path><path d="m15,18.125l5.359.67c.746.093,1.324-.639,1.06-1.343l-1.674-4.464c-.479-1.276-1.57-2.246-2.907-2.51-3.226-.637-6.451-.637-9.677,0-1.337.264-2.429,1.234-2.907,2.51l-1.674,4.464c-.264.704.314,1.437,1.06,1.343l5.359-.67" fill="none" stroke="currentColor" stroke-width="2"></path></g></svg>