<svg xmlns="http://www.w3.org/2000/svg" viewBox="0 0 24 24"><title>24 school 1</title><g stroke-linecap="round" stroke-width="1.5" fill="none" stroke="currentColor" stroke-linejoin="round" class="nc-icon-wrapper"><path d="M11.97 4.66v-3.33s1.33 0.33 2.99 0.33v0.67c-1.66 0-2.99-0.33-2.99-0.34" data-color="color-2"></path><path d="M11.97 21.61v-3.32" data-color="color-2"></path><path d="M13.63 10.97v-0.66" data-color="color-2"></path><path d="M10.31 10.97v-0.66" data-color="color-2"></path><path d="M13.63 14.96v-0.66" data-color="color-2"></path><path d="M10.31 14.96v-0.66" data-color="color-2"></path><path d="M17.62 12.97h3.33a1.33 1.33 0 0 1 1.33 1.33v5.98a1.33 1.33 0 0 1-1.33 1.33h-17.96a1.33 1.33 0 0 1-1.33-1.33v-5.98a1.33 1.33 0 0 1 1.33-1.33h3.33"></path><path d="M17.62 7.98v13.63"></path><path d="M4.32 8.31l7.65-3.66 7.65 3.66"></path><path d="M6.32 21.61v-13.63"></path></g></svg>