<svg xmlns="http://www.w3.org/2000/svg" viewBox="0 0 24 24"><title>24 face sun</title><g stroke-linecap="square" stroke-miterlimit="10" fill="currentColor" stroke-linejoin="miter" class="nc-icon-wrapper"> <path d="M12 1V3V2.5" stroke="currentColor" stroke-width="2" data-color="color-2" fill="none"></path> <path d="M12 22.99V21V21.995" stroke="currentColor" stroke-width="2" data-color="color-2" fill="none"></path> <path d="M23 12L21 12L21.5 12" stroke="currentColor" stroke-width="2" data-color="color-2" fill="none"></path> <path d="M0.99 12L3 12L2.5 12" stroke="currentColor" stroke-width="2" data-color="color-2" fill="none"></path> <path d="M19.7767 4.22534L18.3562 5.64582L18.5528 5.44925" stroke="currentColor" stroke-width="2" data-color="color-2" fill="none"></path> <path d="M4.22743 19.7747L5.60075 18.4014L5.44157 18.5605" stroke="currentColor" stroke-width="2" data-color="color-2" fill="none"></path> <path d="M19.7696 19.7747L18.3923 18.3973L18.8923 18.8973" stroke="currentColor" stroke-width="2" data-color="color-2" fill="none"></path> <path d="M4.21329 4.21829L5.62519 5.6302L5.47409 5.47907" stroke="currentColor" stroke-width="2" data-color="color-2" fill="none"></path> <circle cx="8.5" cy="9.5" r="1.5" fill="currentColor" data-color="color-2" data-stroke="none" stroke="none"></circle> <circle cx="15.5" cy="9.5" r="1.5" fill="currentColor" data-color="color-2" data-stroke="none" stroke="none"></circle> <path d="M8.12602 14C8.57007 15.7252 10.1362 17 12 17C13.8638 17 15.4299 15.7252 15.874 14" stroke="currentColor" stroke-width="2" data-color="color-2" fill="none"></path> <path d="M12 3C7.02944 3 3 7.02944 3 12C3 16.9706 7.02944 21 12 21C16.9706 21 21 16.9706 21 12C21 7.02944 16.9706 3 12 3Z" stroke="currentColor" stroke-width="2" fill="none"></path> </g></svg>