<svg xmlns="http://www.w3.org/2000/svg" viewBox="0 0 24 24"><title>24 triangle warning 1</title><g fill="currentColor" class="nc-icon-wrapper"><path d="M22.85 17.25l-8.25-14.29c-0.54-0.94-1.51-1.5-2.6-1.5s-2.06 0.56-2.6 1.5l-8.25 14.29a2.97 2.97 0 0 0 0 3 2.97 2.97 0 0 0 2.6 1.5h16.5a2.97 2.97 0 0 0 2.6-1.5 2.97 2.97 0 0 0 0-3z m-11.6-10.5h1.5v7.5h-1.5v-7.5z m0.75 11.25c-0.62 0-1.13-0.5-1.13-1.13s0.5-1.13 1.13-1.12 1.13 0.5 1.12 1.13-0.5 1.13-1.12 1.12z" stroke-width="0" fill="currentColor"></path></g></svg>