<svg width="24" height="24" viewBox="0 0 24 24" fill="none" xmlns="http://www.w3.org/2000/svg">
<circle cx="12" cy="12" r="9.5" stroke="url(#paint0_linear_110_1350)" stroke-linecap="round"/>
<path d="M8.20857 16.622C8.63044 16.2567 9.20751 15.9763 9.86133 15.7876C10.5191 15.5977 11.256 15.5 12 15.5C12.744 15.5 13.4809 15.5977 14.1387 15.7876C14.7925 15.9763 15.3696 16.2567 15.7914 16.622" stroke="url(#paint1_linear_110_1350)" stroke-linecap="round"/>
<path d="M17 8L14 10" stroke="url(#paint2_linear_110_1350)" stroke-linecap="round"/>
<path d="M7 8L10 10" stroke="url(#paint3_linear_110_1350)" stroke-linecap="round"/>
<circle cx="8" cy="10" r="1" fill="url(#paint4_linear_110_1350)"/>
<circle cx="16" cy="10" r="1" fill="url(#paint5_linear_110_1350)"/>
<defs>
<linearGradient id="paint0_linear_110_1350" x1="12" y1="3" x2="12" y2="21" gradientUnits="userSpaceOnUse">
<stop stop-color="#7B57E0"/>
<stop offset="1" stop-color="#6055DD"/>
</linearGradient>
<linearGradient id="paint1_linear_110_1350" x1="12" y1="20" x2="12" y2="16" gradientUnits="userSpaceOnUse">
<stop stop-color="#7B57E0"/>
<stop offset="1" stop-color="#6055DD"/>
</linearGradient>
<linearGradient id="paint2_linear_110_1350" x1="15.5" y1="8" x2="15.5" y2="10" gradientUnits="userSpaceOnUse">
<stop stop-color="#7B57E0"/>
<stop offset="1" stop-color="#6055DD"/>
</linearGradient>
<linearGradient id="paint3_linear_110_1350" x1="8.5" y1="8" x2="8.5" y2="10" gradientUnits="userSpaceOnUse">
<stop stop-color="#7B57E0"/>
<stop offset="1" stop-color="#6055DD"/>
</linearGradient>
<linearGradient id="paint4_linear_110_1350" x1="8" y1="9" x2="8" y2="11" gradientUnits="userSpaceOnUse">
<stop stop-color="#7B57E0"/>
<stop offset="1" stop-color="#6055DD"/>
</linearGradient>
<linearGradient id="paint5_linear_110_1350" x1="16" y1="9" x2="16" y2="11" gradientUnits="userSpaceOnUse">
<stop stop-color="#7B57E0"/>
<stop offset="1" stop-color="#6055DD"/>
</linearGradient>
</defs>
</svg>
