<svg width="24" height="24" viewBox="0 0 24 24" fill="none" xmlns="http://www.w3.org/2000/svg">
<path d="M19.5 9H4.5C3.67157 9 3 8.32843 3 7.5C3 6.67157 3.67157 6 4.5 6H19.5C20.3284 6 21 6.67157 21 7.5C21 8.32843 20.3284 9 19.5 9Z" stroke="url(#paint0_linear_105_20)" stroke-width="2" stroke-linecap="round"/>
<path d="M19 9V13" stroke="url(#paint1_linear_105_20)" stroke-width="2" stroke-linecap="round" stroke-linejoin="round"/>
<path d="M8 9L7.01826 15.8722C7.00776 15.9457 7.05256 16.0158 7.12365 16.0371L11.9569 17.4871C11.985 17.4955 12.015 17.4955 12.0431 17.4871L16.8764 16.0371C16.9474 16.0158 16.9922 15.9457 16.9817 15.8722L16 9" stroke="url(#paint2_linear_105_20)" stroke-width="2" stroke-linejoin="round"/>
<path d="M7.5 13L11.9675 13.9928C11.9889 13.9975 12.0111 13.9975 12.0325 13.9928L16.5 13" stroke="url(#paint3_linear_105_20)" stroke-width="2" stroke-linejoin="round"/>
<defs>
<linearGradient id="paint0_linear_105_20" x1="12" y1="6" x2="12" y2="9" gradientUnits="userSpaceOnUse">
<stop stop-color="#7B57E0"/>
<stop offset="1" stop-color="#6055DD"/>
</linearGradient>
<linearGradient id="paint1_linear_105_20" x1="19.5" y1="9" x2="19.5" y2="13" gradientUnits="userSpaceOnUse">
<stop stop-color="#7B57E0"/>
<stop offset="1" stop-color="#6055DD"/>
</linearGradient>
<linearGradient id="paint2_linear_105_20" x1="12" y1="9" x2="12" y2="17.5" gradientUnits="userSpaceOnUse">
<stop stop-color="#7B57E0"/>
<stop offset="1" stop-color="#6055DD"/>
</linearGradient>
<linearGradient id="paint3_linear_105_20" x1="12" y1="13" x2="12" y2="14" gradientUnits="userSpaceOnUse">
<stop stop-color="#7B57E0"/>
<stop offset="1" stop-color="#6055DD"/>
</linearGradient>
</defs>
</svg>
